PathFileType	4	(X/Y/Z)	results/motion.trc
DataRate	CameraRate	NumFrames	NumMarkers	Units	OrigDataRate	OrigDataStartFrame	OrigNumFrames
27	27	15	20	mm	27	538	614
Frame#	Time	NUI_SKELETON_POSITION_HIP_CENTER	NUI_SKELETON_POSITION_HIP_RIGHT	NUI_SKELETON_POSITION_HIP_LEFT	NUI_SKELETON_POSITION_KNEE_RIGHT	NUI_SKELETON_POSITION_KNEE_LEFT	NUI_SKELETON_POSITION_ANKLE_RIGHT	NUI_SKELETON_POSITION_ANKLE_LEFT	NUI_SKELETON_POSITION_FOOT_RIGHT	NUI_SKELETON_POSITION_FOOT_LEFT	NUI_SKELETON_POSITION_SPINE	NUI_SKELETON_POSITION_SHOULDER_RIGHT	NUI_SKELETON_POSITION_SHOULDER_LEFT	NUI_SKELETON_POSITION_ELBOW_RIGHT	NUI_SKELETON_POSITION_ELBOW_LEFT	NUI_SKELETON_POSITION_WRIST_RIGHT	NUI_SKELETON_POSITION_WRIST_LEFT	NUI_SKELETON_POSITION_HAND_RIGHT	NUI_SKELETON_POSITION_HAND_LEFT	NUI_SKELETON_POSITION_SHOULDER_CENTER	NUI_SKELETON_POSITION_HEAD
X1	Y1	Z1	X2	Y2	Z2	X3	Y3	Z3	X4	Y4	Z4	X5	Y5	Z5	X6	Y6	Z6	X7	Y7	Z7	X8	Y8	Z8	X9	Y9	Z9	X10	Y10	Z10	X11	Y11	Z11	X12	Y12	Z12	X13	Y13	Z13	X14	Y14	Z14	X15	Y15	Z15	X16	Y16	Z16	X17	Y17	Z17	X18	Y18	Z18	X19	Y19	Z19	X20	Y20	Z20	
538	18.964000	-214.205846	-81.302524	3023.641348	-129.688084	-155.021995	3037.317753	-296.309829	-167.036831	3003.982306	128.933206	-235.611737	2787.688971	-237.749025	-572.358668	3083.432198	162.879080	-535.029590	2853.186369	-190.327927	-904.808164	3106.758595	230.528146	-583.343744	2814.548492	-195.159540	-953.307509	3039.141655	-216.906264	-17.961219	3037.277937	-48.904117	200.654984	3067.439318	-395.964831	193.394586	3038.473129	111.063361	80.376178	3076.434851	-591.188431	82.199194	3054.404259	291.236579	149.226815	3039.598465	-765.067995	127.854511	2965.593815	322.365195	183.563590	3014.463186	-832.119823	152.779758	2955.933571	-226.177588	305.011839	3024.978161	-222.628117	482.556403	3006.054163	
539	18.994000	-215.921402	-80.772258	3023.689032	-131.395131	-154.459372	3037.503242	-298.285246	-166.510597	3003.846884	129.512787	-231.566399	2786.393642	-238.137275	-572.031319	3083.474398	162.049457	-529.489100	2851.162910	-190.521389	-904.766738	3106.767416	230.423346	-578.049541	2812.139034	-196.018904	-954.157352	3040.850401	-218.538612	-17.519876	3037.230492	-49.924809	200.750470	3067.788839	-397.075832	193.451598	3038.310766	109.184705	80.526046	3077.342987	-592.300534	82.250401	3054.159641	289.262921	149.784818	3040.552616	-766.193509	127.895057	2965.320110	320.439458	184.249148	3015.228271	-833.706081	152.909830	2955.445051	-227.311015	305.035323	3025.023222	-223.839894	482.627332	3006.102800	
540	19.030000	-217.544243	-80.261655	3023.723602	-133.003399	-153.921694	3037.662268	-300.137728	-166.011497	3003.712893	129.969716	-227.885872	2785.286665	-238.501966	-571.711123	3083.514690	161.252037	-524.462998	2849.399328	-190.713018	-904.723942	3106.789589	230.296120	-573.266447	2810.025215	-196.903199	-955.049157	3042.636633	-220.089585	-17.093165	3037.182331	-50.878372	200.842366	3068.121433	-398.133129	193.511695	3038.160563	106.636934	80.221109	3078.613997	-593.327224	82.298458	3053.930283	287.207752	150.325224	3041.554928	-767.234325	127.933070	2965.065718	318.672657	184.913948	3015.949965	-835.255742	153.044254	2954.943657	-228.396818	305.058390	3025.063276	-224.991620	482.691050	3006.130934	
541	19.061000	-219.085529	-79.774953	3023.751259	-134.539112	-153.408885	3037.802696	-301.880360	-165.538773	3003.582001	130.290464	-224.538133	2784.372330	-238.843679	-571.403265	3083.553076	160.490945	-519.848168	2847.858906	-190.902397	-904.680431	3106.827974	230.136976	-568.950593	2808.169603	-197.898000	-956.048131	3044.686317	-221.565843	-16.685013	3037.140846	-51.773828	200.929359	3068.434715	-399.124324	193.571746	3038.017035	103.978738	79.684407	3079.638958	-594.266355	82.337186	3053.718805	285.143495	150.880292	3042.614222	-768.185079	127.965823	2964.831591	317.001879	185.647398	3016.758442	-836.346269	153.069183	2954.652071	-229.424402	305.085093	3025.108576	-226.073682	482.748091	3006.151676	
542	19.095000	-220.527530	-79.314671	3023.769379	-135.963857	-152.917907	3037.918091	-303.504437	-165.096134	3003.453493	130.513147	-221.516564	2783.599377	-239.162937	-571.104407	3083.589315	159.760579	-515.648067	2846.510649	-191.090673	-904.639184	3106.874228	229.967624	-565.047264	2806.524754	-198.277459	-956.337571	3045.428038	-222.949237	-16.298996	3037.101746	-52.621372	201.014131	3068.726063	-400.067836	193.632081	3037.880421	101.134330	79.015359	3080.757618	-595.146060	82.367413	3053.519964	282.904506	151.492655	3043.870211	-769.081533	127.983898	2964.614630	315.390438	186.464205	3017.751694	-837.304235	153.058127	2954.392910	-230.397865	305.108428	3025.152922	-227.127910	482.799649	3006.150961	
543	19.128000	-221.878707	-78.879423	3023.781300	-137.294173	-152.453527	3038.018227	-305.016726	-164.681852	3003.330231	130.627334	-218.789399	2782.971144	-239.459381	-570.820808	3083.626509	159.057066	-511.818886	2845.342159	-191.275895	-904.598176	3106.928110	229.760259	-561.512887	2805.078506	-198.614702	-956.576169	3046.088934	-224.251658	-15.933091	3037.068367	-53.441543	201.099008	3068.999529	-400.987208	193.696663	3037.755489	99.432766	79.425529	3081.861019	-595.953405	82.380667	3053.337812	281.419784	152.200073	3044.869184	-769.905031	127.984181	2964.414358	313.826680	187.311977	3018.816948	-838.153124	153.023958	2954.152346	-231.353670	305.131584	3025.200844	-228.156269	482.848734	3006.135702	
544	19.166000	-223.143429	-78.467682	3023.787975	-138.530806	-152.013615	3038.106680	-306.423068	-164.298102	3003.216982	130.635291	-216.347173	2782.479286	-239.738509	-570.545256	3083.665609	158.408612	-508.352757	2844.315290	-191.458091	-904.557168	3106.990814	229.529247	-558.324158	2803.797483	-198.911518	-956.769228	3046.676874	-225.477844	-15.585001	3037.036419	-54.226778	201.189652	3069.267273	-401.895672	193.757191	3037.644863	97.990327	79.869628	3082.954645	-596.691728	82.378149	3053.170919	280.118883	152.998388	3045.868397	-770.662665	127.965629	2964.234352	312.386125	188.157976	3019.896269	-838.936269	152.975872	2953.925133	-232.316002	305.148453	3025.228739	-229.149908	482.887387	3006.102562	
545	19.202000	-224.330038	-78.077264	3023.787975	-139.684141	-151.597559	3038.180828	-307.734936	-163.939372	3003.109455	130.548000	-214.163542	2782.114744	-240.002096	-570.280194	3083.702803	157.778502	-505.204022	2843.434334	-191.636592	-904.516816	3107.058764	229.254112	-555.452287	2802.673101	-199.175254	-956.920743	3047.195673	-226.631895	-15.254227	3037.002802	-54.985777	201.275155	3069.515705	-402.805001	193.813652	3037.559032	96.752569	80.373108	3084.015608	-597.370148	82.364701	3053.015709	278.967559	153.876200	3046.803236	-771.367908	127.928048	2964.072466	311.058223	188.988999	3020.946980	-839.661002	152.900562	2953.711987	-233.248070	305.156946	3025.242090	-230.132148	482.922524	3006.043673	
546	19.216000	-225.442305	-77.708721	3023.782969	-140.759170	-151.205450	3038.242340	-308.955580	-163.605466	3003.007412	130.375698	-212.225005	2781.878710	-240.249202	-570.027232	3083.738565	157.164246	-502.342701	2842.690468	-191.809580	-904.478371	3107.118607	228.923842	-552.882910	2801.705837	-199.875638	-957.608342	3048.630476	-227.719575	-14.940781	3036.968231	-55.710811	201.355159	3069.747210	-403.685749	193.866685	3037.481546	95.649138	80.894612	3085.036993	-598.004699	82.334638	3052.868843	277.911782	154.777080	3047.675848	-772.033989	127.863288	2963.917732	309.815437	189.792961	3021.974087	-840.328753	152.802572	2953.511715	-234.148979	305.164099	3025.249958	-231.071398	482.953429	3005.980968	
547	19.263000	-226.483256	-77.364080	3023.773432	-141.759798	-150.836125	3038.292170	-310.087264	-163.299531	3002.913237	130.122766	-210.532799	2781.771898	-240.474090	-569.798350	3083.776474	156.565174	-499.778837	2842.058182	-191.974208	-904.443860	3107.169390	228.534490	-550.598681	2800.890207	-200.135306	-957.752109	3049.119711	-228.744909	-14.646982	3036.932230	-56.476053	201.459631	3069.967985	-404.551148	193.895802	3037.410498	94.527975	81.390291	3085.959196	-598.606586	82.290620	3052.726269	276.832163	155.638441	3048.520803	-772.678971	127.772421	2963.775873	308.667123	190.574676	3022.973537	-840.949178	152.684093	2953.322172	-235.045612	305.167019	3025.247335	-232.032001	482.981056	3005.909443	
548	19.296000	-227.455646	-77.042021	3023.760557	-142.689660	-150.489137	3038.332462	-311.131716	-163.023964	3002.825975	129.800141	-209.055796	2781.772375	-240.684852	-569.577932	3083.811998	155.985638	-497.458607	2841.519117	-192.134351	-904.410541	3107.219219	228.118643	-548.581600	2800.202131	-200.357527	-957.849801	3049.528837	-229.710579	-14.372535	3036.895990	-57.211854	201.562226	3070.177555	-405.388832	193.913266	3037.346601	93.518220	81.894092	3086.837769	-599.166989	82.237713	3052.592278	275.838852	156.497359	3049.309492	-773.291349	127.658203	2963.647366	307.607919	191.341519	3023.923874	-841.514885	152.508527	2953.148365	-235.953256	305.158794	3025.240183	-232.966661	482.995927	3005.821228	
549	19.330000	-228.369206	-76.739818	3023.744822	-143.555477	-150.163233	3038.364887	-312.101007	-162.770346	3002.744198	129.408881	-207.780868	2781.873703	-240.880772	-569.368184	3083.845139	155.408829	-495.391905	2841.096401	-192.291051	-904.377759	3107.266665	227.665946	-546.810329	2799.643993	-200.548053	-957.904279	3049.860477	-230.627313	-14.114203	3036.855936	-57.925176	201.663539	3070.376158	-406.219691	193.915129	3037.297487	92.606865	82.407467	3087.675571	-599.706292	82.168661	3052.462101	274.928093	157.338366	3050.046682	-773.884833	127.524018	2963.522673	306.634724	192.076907	3024.764299	-842.046261	152.291954	2952.982903	-236.882254	305.134207	3025.206566	-233.876929	482.999504	3005.723715	
550	19.363000	-229.223832	-76.455697	3023.725748	-144.359455	-149.856225	3038.389206	-312.999725	-162.536576	3002.667427	128.962785	-206.693128	2782.064438	-241.067275	-569.143772	3083.865166	154.840112	-493.559927	2840.774059	-192.443952	-904.347420	3107.313871	227.179959	-545.270443	2799.201488	-200.708300	-957.924843	3050.125837	-231.491506	-13.870461	3036.813021	-58.609467	201.762527	3070.563316	-407.027036	193.906397	3037.253857	91.784798	82.927726	3088.474274	-600.213230	82.089953	3052.340269	274.090350	158.164755	3050.733089	-774.446487	127.376422	2963.406563	305.727601	192.783713	3025.578499	-842.540979	152.054921	2952.816010	-237.795115	305.104434	3025.164604	-234.751225	482.988477	3005.617380	
551	19.395000	-230.019018	-76.190151	3023.705006	-145.098761	-149.567276	3038.408279	-313.824266	-162.323892	3002.596378	128.473029	-205.782145	2782.330275	-241.243154	-568.933785	3083.876610	154.281586	-491.934210	2840.543509	-192.590475	-904.315472	3107.355595	226.665571	-543.943703	2798.863888	-201.242715	-958.514035	3051.111460	-232.301414	-13.641858	3036.768913	-59.266765	201.859638	3070.739985	-407.804936	193.887427	3037.216187	90.977117	83.427921	3089.227676	-600.690901	82.002960	3052.224398	273.256958	158.945009	3051.381350	-774.980485	127.218261	2963.299990	304.855049	193.456933	3026.380777	-842.997193	151.798040	2952.658892	-238.688707	305.073738	3025.123119	-235.589996	482.972682	3005.507708	
552	19.430000	-230.761006	-75.941458	3023.682594	-145.782605	-149.295792	3038.421154	-314.588368	-162.130579	3002.529144	127.945766	-205.027744	2782.661915	-241.407335	-568.732440	3083.884239	153.702438	-490.528196	2840.436935	-192.732960	-904.284239	3107.396364	226.200163	-542.757988	2798.587084	-201.393440	-958.530068	3051.340818	-233.063459	-13.428327	3036.724806	-59.891082	201.950684	3070.910692	-408.567488	193.847716	3037.181854	90.253614	83.933927	3089.948177	-601.144493	81.903651	3052.115917	272.494704	159.714028	3051.988125	-775.485396	127.052382	2963.199615	304.058015	194.097519	3027.143717	-843.492091	151.525185	2952.457666	-239.576384	305.022001	3025.093079	-236.394361	482.944876	3005.397081	
